<?xml version="1.0" encoding="UTF-8" standalone="no"?>
<!DOCTYPE svg PUBLIC "-//W3C//DTD SVG 1.1//EN" "http://www.w3.org/Graphics/SVG/1.1/DTD/svg11.dtd">
<svg width="100%" height="100%" viewBox="0 0 7331 2540" version="1.1" xmlns="http://www.w3.org/2000/svg" xmlns:xlink="http://www.w3.org/1999/xlink" xml:space="preserve" xmlns:serif="http://www.serif.com/" style="fill-rule:evenodd;clip-rule:evenodd;stroke-linejoin:round;stroke-miterlimit:2;">
    <g transform="matrix(1.33333,0,0,1.33333,0,0)">
        <g id="Artboard2" transform="matrix(1.0139,0,0,1.05098,-1042.46,-3458.33)">
            <rect x="1028.17" y="3290.58" width="5422.3" height="1812.52" style="fill:none;"/>
            <g transform="matrix(4.10956,0,0,3.96456,-168.327,471.644)">
                <g transform="matrix(0.97791,0,0,1,17.5516,0)">
                    <text x="794.543px" y="1023.41px" style="font-family:'LucidaGrande', 'Lucida Grande', sans-serif;font-weight:500;font-size:288px;fill:rgb(0,82,141);">Γ<tspan x="910.111px " y="1023.41px ">-</tspan></text>
                </g>
                <g transform="matrix(0.97791,0,0,1,24.2725,0)">
                    <text x="1098.8px" y="1023.41px" style="font-family:'Monaco';font-size:288px;fill:rgb(0,82,141);stroke:rgb(0,82,141);stroke-width:2.02px;">o<tspan x="1257.22px 1415.65px " y="1023.41px 1023.41px ">pt</tspan></text>
                </g>
            </g>
            <g transform="matrix(4.10956,0,0,3.96456,2862.88,3539.69)">
                <path d="M0,227.496L-20.559,237.42L-58.967,157.794C-61.345,158.205 -63.792,158.412 -66.283,158.412C-90.222,158.412 -109.626,139.004 -109.626,115.067C-109.626,102.226 -104.039,90.691 -95.167,82.757L-135.092,-0.007L-114.533,-9.924L-74.742,72.554C-72.01,72.01 -69.183,71.724 -66.283,71.724C-42.347,71.724 -22.941,91.134 -22.941,115.067C-22.941,128.325 -28.896,140.197 -38.275,148.147L0,227.496Z" style="fill:rgb(244,128,46);fill-rule:nonzero;"/>
            </g>
            <g transform="matrix(4.10956,0,0,3.96456,2418.72,3633.43)">
                <path d="M0,289.669C4.769,294.694 7.686,301.487 7.686,308.958C7.686,324.462 -4.882,337.03 -20.387,337.03C-33.703,337.03 -44.857,327.761 -47.742,315.323L-201.681,291.169C-206.786,296.503 -213.977,299.817 -221.94,299.817C-237.445,299.817 -250.02,287.245 -250.02,271.741C-250.02,264.144 -247,257.257 -242.1,252.204L-280.361,139.852C-294.808,138.696 -306.164,126.61 -306.164,111.873C-306.164,96.363 -293.597,83.794 -278.091,83.794C-274.585,83.794 -271.225,84.44 -268.129,85.613L-175.695,-11.101C-176.48,-13.689 -176.905,-16.44 -176.905,-19.289C-176.905,-34.791 -164.337,-47.361 -148.834,-47.361C-133.323,-47.361 -120.754,-34.791 -120.754,-19.289C-120.754,-19.163 -120.754,-19.035 -120.761,-18.908L-11.128,45.252L-22.34,64.41L-129.911,1.455C-134.901,6.007 -141.541,8.784 -148.834,8.784C-153.285,8.784 -157.502,7.745 -161.243,5.898L-252.182,101.048C-250.787,104.377 -250.02,108.037 -250.02,111.873C-250.02,120.167 -253.614,127.62 -259.334,132.753L-221.554,243.677C-206.836,243.872 -194.857,255.394 -193.932,269.921L-43.812,293.48C-38.826,285.944 -30.304,280.962 -20.614,280.886L13.044,156.915L34.464,162.731L0,289.669Z" style="fill:rgb(0,82,141);fill-rule:nonzero;"/>
            </g>
            <g transform="matrix(0,-3.96456,-4.10956,0,1683.56,4202.58)">
                <path d="M-6.147,-6.147C-9.543,-6.147 -12.293,-3.394 -12.293,0C-12.293,3.395 -9.543,6.147 -6.147,6.147C-2.752,6.147 -0.001,3.395 -0.001,0C-0.001,-3.394 -2.752,-6.147 -6.147,-6.147" style="fill:rgb(0,82,141);fill-rule:nonzero;"/>
            </g>
            <g transform="matrix(0,-3.96456,-4.10956,0,1596.65,3999.77)">
                <path d="M-6.146,-6.147C-9.541,-6.147 -12.293,-3.396 -12.293,-0.001C-12.293,3.393 -9.541,6.146 -6.146,6.146C-2.753,6.146 -0,3.393 -0,-0.001C-0,-3.396 -2.753,-6.147 -6.146,-6.147" style="fill:rgb(0,82,141);fill-rule:nonzero;"/>
            </g>
            <g transform="matrix(0,-3.96456,-4.10956,0,1846.7,3802.08)">
                <path d="M-6.146,-6.147C-9.541,-6.147 -12.293,-3.394 -12.293,-0C-12.293,3.396 -9.541,6.146 -6.146,6.146C-2.752,6.146 -0,3.396 -0,-0C-0,-3.394 -2.752,-6.147 -6.146,-6.147" style="fill:rgb(0,82,141);fill-rule:nonzero;"/>
            </g>
            <g transform="matrix(0,-3.96456,-4.10956,0,2130.3,3928.77)">
                <path d="M-6.146,-6.147C-9.541,-6.147 -12.293,-3.396 -12.293,-0.001C-12.293,3.394 -9.541,6.146 -6.146,6.146C-2.752,6.146 0,3.394 0,-0.001C0,-3.396 -2.752,-6.147 -6.146,-6.147" style="fill:rgb(0,82,141);fill-rule:nonzero;"/>
            </g>
            <g transform="matrix(0,-3.96456,-4.10956,0,1933.6,4081.97)">
                <path d="M-6.146,-6.147C-9.542,-6.147 -12.293,-3.396 -12.293,-0.001C-12.293,3.394 -9.542,6.146 -6.146,6.146C-2.751,6.146 0,3.394 0,-0.001C0,-3.396 -2.751,-6.147 -6.146,-6.147" style="fill:rgb(0,82,141);fill-rule:nonzero;"/>
            </g>
            <g transform="matrix(0,-3.96456,-4.10956,0,1891.91,4380.72)">
                <path d="M-6.148,-6.146C-9.541,-6.146 -12.294,-3.393 -12.294,0.001C-12.294,3.397 -9.541,6.148 -6.148,6.148C-2.753,6.148 0,3.397 0,0.001C0,-3.393 -2.753,-6.146 -6.148,-6.146" style="fill:rgb(0,82,141);fill-rule:nonzero;"/>
            </g>
            <g transform="matrix(0,-3.96456,-4.10956,0,2130.3,4342.96)">
                <path d="M-6.146,-6.147C-9.541,-6.147 -12.294,-3.396 -12.294,-0.001C-12.294,3.393 -9.541,6.146 -6.146,6.146C-2.753,6.146 0,3.393 0,-0.001C0,-3.396 -2.753,-6.147 -6.146,-6.147" style="fill:rgb(0,82,141);fill-rule:nonzero;"/>
            </g>
            <g transform="matrix(0,-3.96456,-4.10956,0,2228.98,4553.07)">
                <path d="M-6.148,-6.145C-9.541,-6.145 -12.294,-3.394 -12.294,0.001C-12.294,3.395 -9.541,6.148 -6.148,6.148C-2.753,6.148 0,3.395 0,0.001C0,-3.394 -2.753,-6.145 -6.148,-6.145" style="fill:rgb(0,82,141);fill-rule:nonzero;"/>
            </g>
            <g transform="matrix(0,-3.96456,-4.10956,0,1988.94,4619.67)">
                <path d="M-6.147,-6.147C-9.542,-6.147 -12.293,-3.394 -12.293,0C-12.293,3.396 -9.542,6.147 -6.147,6.147C-2.752,6.147 -0.001,3.396 -0.001,0C-0.001,-3.394 -2.752,-6.147 -6.147,-6.147" style="fill:rgb(0,82,141);fill-rule:nonzero;"/>
            </g>
            <g transform="matrix(0,-3.96456,-4.10956,0,2579.08,4774.66)">
                <path d="M-6.145,-6.148C-9.541,-6.148 -12.293,-3.396 -12.293,-0.002C-12.293,3.394 -9.541,6.145 -6.145,6.145C-2.752,6.145 -0,3.394 -0,-0.002C-0,-3.396 -2.752,-6.148 -6.145,-6.148" style="fill:rgb(0,82,141);fill-rule:nonzero;"/>
            </g>
            <g transform="matrix(0,-3.96456,-4.10956,0,2643.14,4551.46)">
                <path d="M-6.146,-6.148C-9.541,-6.148 -12.294,-3.395 -12.294,-0.001C-12.294,3.395 -9.541,6.146 -6.146,6.146C-2.753,6.146 0,3.395 0,-0.001C0,-3.395 -2.753,-6.148 -6.146,-6.148" style="fill:rgb(0,82,141);fill-rule:nonzero;"/>
            </g>
            <g transform="matrix(0,-3.96456,-4.10956,0,2827.51,4142.02)">
                <path d="M-6.147,-6.147C-9.541,-6.147 -12.294,-3.395 -12.294,-0.001C-12.294,3.395 -9.541,6.147 -6.147,6.147C-2.753,6.147 0,3.395 0,-0.001C0,-3.395 -2.753,-6.147 -6.147,-6.147" style="fill:rgb(0,82,141);fill-rule:nonzero;"/>
            </g>
            <g transform="matrix(0,-3.96456,-4.10956,0,2831.02,3804.7)">
                <path d="M-6.146,-6.147C-9.542,-6.147 -12.293,-3.394 -12.293,-0C-12.293,3.396 -9.542,6.146 -6.146,6.146C-2.753,6.146 -0,3.396 -0,-0C-0,-3.394 -2.753,-6.147 -6.146,-6.147" style="fill:rgb(0,82,141);fill-rule:nonzero;"/>
            </g>
            <g transform="matrix(0,-3.96456,-4.10956,0,2610.26,3591.27)">
                <path d="M-6.146,-6.147C-9.541,-6.147 -12.293,-3.395 -12.293,-0.001C-12.293,3.395 -9.541,6.146 -6.146,6.146C-2.752,6.146 -0,3.395 -0,-0.001C-0,-3.395 -2.752,-6.147 -6.146,-6.147" style="fill:rgb(0,82,141);fill-rule:nonzero;"/>
            </g>
            <g transform="matrix(0,-3.96456,-4.10956,0,2167.89,3416.7)">
                <path d="M-6.146,-6.147C-9.542,-6.147 -12.293,-3.395 -12.293,0C-12.293,3.395 -9.542,6.146 -6.146,6.146C-2.752,6.146 0,3.395 0,0C0,-3.395 -2.752,-6.147 -6.146,-6.147" style="fill:rgb(0,82,141);fill-rule:nonzero;"/>
            </g>
            <g transform="matrix(0,-3.96456,-4.10956,0,1903.63,3328.78)">
                <path d="M-6.146,-6.147C-9.541,-6.147 -12.293,-3.395 -12.293,-0.001C-12.293,3.395 -9.541,6.146 -6.146,6.146C-2.753,6.146 -0,3.395 -0,-0.001C-0,-3.395 -2.753,-6.147 -6.146,-6.147" style="fill:rgb(0,82,141);fill-rule:nonzero;"/>
            </g>
            <g transform="matrix(0,-3.96456,-4.10956,0,1630.13,3396.3)">
                <path d="M-6.146,-6.147C-9.541,-6.147 -12.293,-3.396 -12.293,-0.001C-12.293,3.393 -9.541,6.146 -6.146,6.146C-2.752,6.146 -0,3.393 -0,-0.001C-0,-3.396 -2.752,-6.147 -6.146,-6.147" style="fill:rgb(0,82,141);fill-rule:nonzero;"/>
            </g>
            <g transform="matrix(0,-3.96456,-4.10956,0,1460.24,3577.15)">
                <path d="M-6.146,-6.147C-9.542,-6.147 -12.293,-3.395 -12.293,-0.001C-12.293,3.395 -9.542,6.146 -6.146,6.146C-2.753,6.146 -0,3.395 -0,-0.001C-0,-3.395 -2.753,-6.147 -6.146,-6.147" style="fill:rgb(0,82,141);fill-rule:nonzero;"/>
            </g>
            <g transform="matrix(0,-3.96456,-4.10956,0,1276.55,3751.12)">
                <path d="M-6.146,-6.147C-9.542,-6.147 -12.293,-3.394 -12.293,-0C-12.293,3.396 -9.542,6.146 -6.146,6.146C-2.753,6.146 -0,3.396 -0,-0C-0,-3.394 -2.753,-6.147 -6.146,-6.147" style="fill:rgb(0,82,141);fill-rule:nonzero;"/>
            </g>
            <g transform="matrix(0,-3.96456,-4.10956,0,1163.24,4314.18)">
                <path d="M-6.146,-6.147C-9.541,-6.147 -12.294,-3.396 -12.294,-0.001C-12.294,3.393 -9.541,6.146 -6.146,6.146C-2.753,6.146 0,3.393 0,-0.001C0,-3.396 -2.753,-6.147 -6.146,-6.147" style="fill:rgb(0,82,141);fill-rule:nonzero;"/>
            </g>
            <g transform="matrix(0,-3.96456,-4.10956,0,1246.22,4595.89)">
                <path d="M-6.147,-6.147C-9.542,-6.147 -12.293,-3.395 -12.293,-0.001C-12.293,3.394 -9.542,6.147 -6.147,6.147C-2.752,6.147 -0.001,3.394 -0.001,-0.001C-0.001,-3.395 -2.752,-6.147 -6.147,-6.147" style="fill:rgb(0,82,141);fill-rule:nonzero;"/>
            </g>
            <g transform="matrix(0,-3.96456,-4.10956,0,1560.68,4894.18)">
                <path d="M-6.148,-6.146C-9.543,-6.146 -12.294,-3.395 -12.294,0C-12.294,3.395 -9.543,6.148 -6.148,6.148C-2.753,6.148 0,3.395 0,0C0,-3.395 -2.753,-6.146 -6.148,-6.146" style="fill:rgb(0,82,141);fill-rule:nonzero;"/>
            </g>
            <g transform="matrix(0,-3.96456,-4.10956,0,1871.36,4961.72)">
                <path d="M-6.148,-6.146C-9.541,-6.146 -12.294,-3.393 -12.294,0.001C-12.294,3.397 -9.541,6.148 -6.148,6.148C-2.753,6.148 0,3.397 0,0.001C0,-3.393 -2.753,-6.146 -6.148,-6.146" style="fill:rgb(0,82,141);fill-rule:nonzero;"/>
            </g>
            <g transform="matrix(0,-3.96456,-4.10956,0,2166.26,5004.65)">
                <path d="M-6.145,-6.148C-9.541,-6.148 -12.293,-3.397 -12.293,-0.002C-12.293,3.393 -9.541,6.145 -6.145,6.145C-2.752,6.145 0,3.393 0,-0.002C0,-3.397 -2.752,-6.148 -6.145,-6.148" style="fill:rgb(0,82,141);fill-rule:nonzero;"/>
            </g>
            <g transform="matrix(0,-3.96456,-4.10956,0,1705.92,4570.94)">
                <path d="M-6.148,-6.146C-9.541,-6.146 -12.294,-3.394 -12.294,0C-12.294,3.396 -9.541,6.148 -6.148,6.148C-2.753,6.148 0,3.396 0,0C0,-3.394 -2.753,-6.146 -6.148,-6.146" style="fill:rgb(0,82,141);fill-rule:nonzero;"/>
            </g>
            <g transform="matrix(0,-3.96456,-4.10956,0,2269.62,4171.37)">
                <path d="M-6.148,-6.145C-9.541,-6.145 -12.294,-3.393 -12.294,0.002C-12.294,3.397 -9.541,6.148 -6.148,6.148C-2.753,6.148 0,3.397 0,0.002C0,-3.393 -2.753,-6.145 -6.148,-6.145" style="fill:rgb(0,82,141);fill-rule:nonzero;"/>
            </g>
            <g transform="matrix(0,-3.96456,-4.10956,0,1565.39,4385.4)">
                <path d="M-6.146,-6.146C-9.542,-6.146 -12.293,-3.395 -12.293,-0C-12.293,3.394 -9.542,6.146 -6.146,6.146C-2.752,6.146 -0,3.394 -0,-0C-0,-3.395 -2.752,-6.146 -6.146,-6.146" style="fill:rgb(0,82,141);fill-rule:nonzero;"/>
            </g>
            <g transform="matrix(0,-3.96456,-4.10956,0,1089.88,3940.66)">
                <path d="M-6.146,-6.147C-9.541,-6.147 -12.293,-3.394 -12.293,-0C-12.293,3.396 -9.541,6.146 -6.146,6.146C-2.753,6.146 -0,3.396 -0,-0C-0,-3.394 -2.753,-6.147 -6.146,-6.147" style="fill:rgb(0,82,141);fill-rule:nonzero;"/>
            </g>
        </g>
    </g>
</svg>
